<svg width="24" height="24" viewBox="0 0 24 24" fill="currentColor" xmlns="http://www.w3.org/2000/svg">
<path d="M17 7C17 9.76142 14.7614 12 12 12C9.23858 12 7 9.76142 7 7C7 4.23858 9.23858 2 12 2C14.7614 2 17 4.23858 17 7Z"/>
<path fill-rule="evenodd" clip-rule="evenodd" d="M20.7453 16.7829C20.9122 16.9605 21 17.197 21 17.4407V20C21 20.5523 20.5523 21 20 21H4C3.44772 21 3 20.5523 3 20V17.4407C3 17.197 3.08776 16.9605 3.25467 16.7829C5.44351 14.4543 8.55192 13 12 13C15.4481 13 18.5565 14.4543 20.7453 16.7829Z"/>
</svg>
