<svg width="24px" height="24px" viewBox="0 0 24 24" xmlns="http://www.w3.org/2000/svg" xmlns:xlink="http://www.w3.org/1999/xlink">
    <g id="heart-icon" transform="translate(0.500000, 3.000000)" fill="black" fill-rule="nonzero">
        <path fill-rule="evenodd" d="M11.4995059,2.81026827 C12.0863428,1.88262109 12.9558281,1.14978627 13.965627,0.653708834 C17.4321357,-1.0492769 21.7331582,0.74576444 22.7920117,4.33634135 C22.840752,4.50177928 22.918916,5.02248223 23,5.12753822 L23,7.08056107 C22.9083594,7.18467158 22.8661328,7.61385613 22.8324414,7.77190211 C22.3007012,10.2671162 20.5110586,12.0913815 18.6008906,13.7321373 C16.9153471,15.1544331 15.1616298,16.5010275 13.3454131,17.7675637 C12.9415205,18.0532283 11.8931563,18.8146854 11.4863213,19 C11.0775547,18.7698395 10.6726064,18.4699926 10.2895801,18.2032806 C9.65159567,17.7625355 9.02074289,17.3124182 8.39724609,16.8530888 C7.05911328,15.8645225 5.72821289,14.8709279 4.4716582,13.7874265 C4.30365039,13.6425528 4.12481641,13.5093473 3.95849316,13.3626041 C2.89422656,12.423783 1.91576074,11.3876417 1.16322949,10.2002233 C0.764210938,9.57059645 0.448589844,8.84835533 0.2486875,8.13844845 C0.182135742,7.90212083 0.133822266,7.22380166 0.0125556641,7.07680063 C0.00839290365,7.07181536 0.00420768229,7.06685158 1.0658141e-14,7.06190928 L1.0658141e-14,5.11438742 C0.00348144531,5.11069144 0.00705273438,5.10710291 0.0104443359,5.10334247 C0.0736269531,5.032947 0.280110352,4.09990628 0.355152344,3.91158337 C1.23000586,1.71632363 3.18473633,0.295521417 5.62212988,0.0325698654 C7.2094668,-0.138691381 8.88300879,0.376188258 10.1236162,1.32416331 C10.6589277,1.73321338 11.1484414,2.2468467 11.4995059,2.81026827 Z M11.469007,17.7195652 C11.6528987,17.6214967 12.3317995,17.1201953 12.5397576,16.975958 C13.8061954,16.0892199 15.0460569,15.1682544 16.2578428,14.2141751 C16.8487388,13.7467763 17.4159887,13.2850682 17.9755249,12.7841287 C18.3703173,12.4306639 18.7980668,12.1199495 19.1504646,11.7157111 C19.281936,11.5648783 19.4216887,11.4184693 19.5518358,11.266249 C21.6373854,9.09617473 22.5558562,5.54542011 20.483212,3.08415664 C18.599441,0.847101398 15.2886962,0.577508593 13.0232064,2.42617083 C12.6507778,2.7300685 12.33119,3.07667633 12.0645901,3.47082033 C11.9299659,3.66715837 11.8367274,3.91046955 11.6741906,4.08581446 C11.5683619,4.18565248 11.3651961,4.1917252 11.271285,4.0726837 C11.1138767,3.87314843 11.0043278,3.63834309 10.8614434,3.43056339 C9.85919243,1.97308922 8.03912878,1.09057344 6.21645882,1.2083079 C2.95712551,1.54651044 0.988039985,4.01792863 1.36816137,7.0844739 C1.68114935,9.60929991 3.17119995,11.2238405 5.05560153,12.8542265 C5.7862247,13.4986559 6.54111673,14.1174377 7.31877931,14.7093435 C8.40945459,15.543322 9.52017925,16.3530148 10.6500593,17.13777 C10.9223553,17.3278744 11.1954499,17.5344879 11.469007,17.7195652 Z" id="Shape"></path>
    </g>
</svg>
