<svg width="24" height="24" viewBox="0 0 24 24" fill="none" xmlns="http://www.w3.org/2000/svg">
<path fill-rule="evenodd" clip-rule="evenodd" d="M6 3C6 2.44772 6.44772 2 7 2C7.55228 2 8 2.44772 8 3V4H16V3C16 2.44772 16.4477 2 17 2C17.5523 2 18 2.44772 18 3V4H19C20.1046 4 21 4.89543 21 6V19C21 20.1046 20.1046 21 19 21H5C3.89543 21 3 20.1046 3 19V6C3 4.89543 3.89543 4 5 4H6V3ZM18 8.75C18 9.16421 17.6642 9.5 17.25 9.5H6.75C6.33579 9.5 6 9.16421 6 8.75C6 8.33579 6.33579 8 6.75 8H17.25C17.6642 8 18 8.33579 18 8.75ZM9.87967 12.4697C10.1726 12.1768 10.6474 12.1768 10.9403 12.4697L12.0313 13.5607L13.0617 12.5303C13.3546 12.2374 13.8294 12.2374 14.1223 12.5303C14.4152 12.8232 14.4152 13.2981 14.1223 13.591L13.092 14.6213L14.1223 15.6517C14.4152 15.9445 14.4152 16.4194 14.1223 16.7123C13.8294 17.0052 13.3545 17.0052 13.0617 16.7123L12.0313 15.682L10.9403 16.773C10.6474 17.0659 10.1726 17.0659 9.87968 16.773C9.58679 16.4801 9.58679 16.0052 9.87968 15.7123L10.9707 14.6213L9.87967 13.5303C9.58678 13.2374 9.58678 12.7626 9.87967 12.4697Z" fill="currentColor"/>
</svg>
