<?xml version="1.0" encoding="UTF-8"?>
<svg width="499px" height="141px" viewBox="0 0 499 141" version="1.1" xmlns="http://www.w3.org/2000/svg" xmlns:xlink="http://www.w3.org/1999/xlink">
    <title>logo-socially-v3</title>
    <defs>
        <linearGradient x1="10.6497895%" y1="53.416593%" x2="96.310494%" y2="42.7731139%" id="linearGradient-1">
            <stop stop-color="#6699FF" offset="0%"></stop>
            <stop stop-color="#E477FF" offset="100%"></stop>
        </linearGradient>
    </defs>
    <g id="Page-1" stroke="none" stroke-width="1" fill="none" fill-rule="evenodd">
        <g id="logo-socially-v3" transform="translate(0.805155, 0.062500)" fill-rule="nonzero">
            <path d="M12.6948449,70.375 C12.3615449,71.7083 11.7365449,72.5417 10.8198449,72.875 C9.90314488,73.1667 8.98654488,73.125 8.06984488,72.75 C7.19484488,72.375 6.44484488,71.7292 5.81984488,70.8125 C5.23654488,69.8958 5.06984488,68.8958 5.31984488,67.8125 C5.94484488,64.9792 6.84064488,61.8542 8.00734488,58.4375 C9.21564488,54.9792 10.4031449,51.5417 11.5698449,48.125 C10.9448449,47.1667 10.4448449,46.2083 10.0698449,45.25 C9.69484488,44.25 9.50734488,43.2083 9.50734488,42.125 C9.50734488,41.0417 9.90314488,39.9167 10.6948449,38.75 C11.5281449,37.5417 12.5073449,36.4375 13.6323449,35.4375 C14.7990449,34.4375 15.9865449,33.625 17.1948449,33 C18.4448449,32.3333 19.5073449,32 20.3823449,32 C21.9240449,32 23.0698449,32.5208 23.8198449,33.5625 C24.6115449,34.6042 25.0073449,36 25.0073449,37.75 C25.0073449,38.7083 24.8406449,39.6667 24.5073449,40.625 C24.2156449,41.5417 23.8823449,42.4167 23.5073449,43.25 C23.1323449,44.0417 22.7781449,44.7292 22.4448449,45.3125 C22.1531449,45.8958 21.9865449,46.2708 21.9448449,46.4375 C23.4448449,49.1042 25.0073449,51.4583 26.6323449,53.5 C28.2573449,55.5417 29.7365449,57.5625 31.0698449,59.5625 C32.4448449,61.5625 33.5698449,63.6875 34.4448449,65.9375 C35.3198449,68.1875 35.7573449,70.8333 35.7573449,73.875 C35.7573449,74.625 35.6948449,75.3958 35.5698449,76.1875 C35.4865449,76.9792 35.3406449,77.7292 35.1323449,78.4375 C36.6323449,78.1458 37.9448449,77.6875 39.0698449,77.0625 C40.2365449,76.4375 41.2365449,75.7292 42.0698449,74.9375 C42.9448449,74.1042 43.6531449,73.2083 44.1948449,72.25 C44.7781449,71.2917 45.2573449,70.2917 45.6323449,69.25 C46.0906449,68.0417 46.5490449,67.1667 47.0073449,66.625 C47.4656449,66.0833 47.9865449,65.8125 48.5698449,65.8125 C49.1115449,65.8125 49.6531449,66 50.1948449,66.375 C50.7781449,66.7083 51.2781449,67.1458 51.6948449,67.6875 C52.1531449,68.2292 52.5073449,68.7917 52.7573449,69.375 C53.0490449,69.9583 53.1948449,70.4792 53.1948449,70.9375 C53.1948449,71.5625 53.0281449,72.3125 52.6948449,73.1875 C52.3615449,74.0625 51.9031449,74.9583 51.3198449,75.875 C50.7781449,76.7917 50.1531449,77.6875 49.4448449,78.5625 C48.7365449,79.3958 48.0073449,80.125 47.2573449,80.75 C45.2573449,82.375 42.9031449,83.75 40.1948449,84.875 C37.4865449,85.9583 34.1323449,86.6458 30.1323449,86.9375 C28.5906449,88.2708 26.7573449,89.3542 24.6323449,90.1875 C22.5490449,91.0625 20.1948449,91.5 17.5698449,91.5 C16.2365449,91.5 14.8615449,91.3333 13.4448449,91 C12.0698449,90.6667 10.7365449,90.2292 9.44484488,89.6875 C8.19484488,89.1875 7.04904488,88.625 6.00734488,88 C4.96564488,87.375 4.13234488,86.75 3.50734488,86.125 C1.92404488,84.625 0.903144881,83.125 0.444844881,81.625 C-0.0134551188,80.0833 -0.117655119,78.7083 0.132344881,77.5 C0.340644881,76.2917 0.778144881,75.3125 1.44484488,74.5625 C2.11154488,73.7708 2.79904488,73.375 3.50734488,73.375 C3.92404488,73.375 4.56984488,73.5625 5.44484488,73.9375 C6.36154488,74.2708 7.40314488,74.7292 8.56984488,75.3125 C9.73654488,75.8542 11.0073449,76.4375 12.3823449,77.0625 C13.7573449,77.6875 15.1323449,78.2917 16.5073449,78.875 C17.8823449,79.4167 19.2156449,79.875 20.5073449,80.25 C21.8406449,80.5833 23.0490449,80.75 24.1323449,80.75 C24.8406449,79.9167 25.4865449,78.8125 26.0698449,77.4375 C26.6531449,76.0625 26.9448449,74.5625 26.9448449,72.9375 C26.9448449,70.9375 26.6740449,69.0833 26.1323449,67.375 C25.5906449,65.6667 24.8823449,64.0833 24.0073449,62.625 C23.1323449,61.1667 22.1323449,59.8125 21.0073449,58.5625 C19.9240449,57.2708 18.8198449,56.0625 17.6948449,54.9375 C16.6948449,57.3958 15.8198449,59.8333 15.0698449,62.25 C14.3198449,64.625 13.5281449,67.3333 12.6948449,70.375 Z M93.6328449,66.8125 C93.7158449,66.3125 93.9868449,65.8958 94.4448449,65.5625 C94.9448449,65.2292 95.5068449,65 96.1328449,64.875 C96.7568449,64.75 97.4028449,64.75 98.0698449,64.875 C98.7778449,65 99.3828449,65.2917 99.8828449,65.75 C100.423845,66.1667 100.798845,66.7708 101.006845,67.5625 C101.256845,68.3125 101.236845,69.2917 100.944845,70.5 C100.569845,72.25 99.9448449,73.8958 99.0698449,75.4375 C98.2368449,76.9375 97.1738449,78.2708 95.8828449,79.4375 C94.5908449,80.6042 93.0698449,81.5208 91.3198449,82.1875 C89.5698449,82.8542 87.6118449,83.1875 85.4448449,83.1875 C84.2778449,83.1875 83.1738449,83.125 82.1328449,83 C81.1328449,82.875 80.1528449,82.6458 79.1948449,82.3125 C77.6118449,85.0625 75.5698449,87.2708 73.0698449,88.9375 C70.5698449,90.6458 67.4865449,91.5 63.8198449,91.5 C60.5698449,91.5 57.7781449,90.8542 55.4448449,89.5625 C53.1115449,88.3125 51.1740449,86.6042 49.6323449,84.4375 C48.0906449,82.2292 46.9448449,79.6875 46.1948449,76.8125 C45.4865449,73.9375 45.1323449,70.8958 45.1323449,67.6875 C45.1323449,62.9792 45.6740449,58.7708 46.7573449,55.0625 C47.8823449,51.3125 49.1740449,48.1458 50.6323449,45.5625 C52.0906449,42.9375 53.5281449,40.9375 54.9448449,39.5625 C56.4031449,38.1875 57.4865449,37.5 58.1948449,37.5 C59.0281449,37.5 59.7781449,37.875 60.4448449,38.625 C61.1531449,39.3333 61.6531449,40.1875 61.9448449,41.1875 C62.2781449,42.1458 62.3615449,43.125 62.1948449,44.125 C62.0698449,45.125 61.5906449,45.8958 60.7573449,46.4375 C60.2573449,47.2292 59.6531449,48.1458 58.9448449,49.1875 C58.2781449,50.2292 57.6323449,51.5417 57.0073449,53.125 C56.4240449,54.6667 55.9240449,56.5625 55.5073449,58.8125 C55.0906449,61.0625 54.8823449,63.7708 54.8823449,66.9375 C54.8823449,69.6458 55.1115449,72 55.5698449,74 C56.0698449,76 56.7365449,77.6875 57.5698449,79.0625 C58.4448449,80.3958 59.4240449,81.3958 60.5073449,82.0625 C61.6323449,82.7292 62.8198449,83.0625 64.0698449,83.0625 C65.9031449,83.0625 67.4031449,82.625 68.5698449,81.75 C69.7781449,80.8333 70.7990449,79.6458 71.6323449,78.1875 C68.6323449,75.6042 66.3406449,72.3333 64.7573449,68.375 C63.2156449,64.375 62.4448449,60.0625 62.4448449,55.4375 C62.4448449,53.4375 62.6531449,51.5417 63.0698449,49.75 C63.5281449,47.9167 64.1740449,46.3125 65.0073449,44.9375 C65.8823449,43.5625 66.9656449,42.4792 68.2573449,41.6875 C69.5490449,40.8542 71.0490449,40.4375 72.7573449,40.4375 C74.2568449,40.4375 75.6738449,40.9792 77.0068449,42.0625 C78.3408449,43.1458 79.5068449,44.6458 80.5068449,46.5625 C81.5068449,48.4792 82.2778449,50.75 82.8198449,53.375 C83.4028449,56 83.6948449,58.8542 83.6948449,61.9375 C83.6948449,64.3125 83.5488449,66.6667 83.2568449,69 C82.9658449,71.3333 82.5068449,73.5833 81.8828449,75.75 C82.3408449,75.9167 82.7568449,76.0208 83.1328449,76.0625 C83.5488449,76.0625 83.9868449,76.0625 84.4448449,76.0625 C85.8198449,76.0625 87.0278449,75.8125 88.0698449,75.3125 C89.1528449,74.8125 90.0698449,74.1458 90.8198449,73.3125 C91.5698449,72.4792 92.1738449,71.5 92.6328449,70.375 C93.0908449,69.25 93.4238449,68.0625 93.6328449,66.8125 Z M69.1948449,54.9375 C69.1948449,57.8125 69.6323449,60.5417 70.5073449,63.125 C71.4240449,65.7083 72.6115449,67.9583 74.0698449,69.875 C74.3198449,67.8333 74.4448449,65.875 74.4448449,64 C74.4448449,61.8333 74.4028449,59.8333 74.3198449,58 C74.2778449,56.125 74.1328449,54.5208 73.8828449,53.1875 C73.6738449,51.8542 73.3618449,50.8125 72.9448449,50.0625 C72.5698449,49.2708 72.0490449,48.875 71.3823449,48.875 C69.9240449,48.875 69.1948449,50.8958 69.1948449,54.9375 Z M114.632845,91.5 C111.798845,91.5 109.048845,90.9792 106.382845,89.9375 C103.715845,88.8958 101.340845,87.3542 99.2568449,85.3125 C97.2158449,83.2708 95.5698449,80.75 94.3198449,77.75 C93.1118449,74.75 92.5068449,71.2708 92.5068449,67.3125 C92.5068449,63.6458 93.0278449,60.0417 94.0698449,56.5 C95.1118449,52.9583 96.5488449,49.8125 98.3828449,47.0625 C100.215845,44.2708 102.402845,42.0208 104.944845,40.3125 C107.527845,38.6042 110.340845,37.75 113.382845,37.75 C115.590845,37.75 117.465845,38.2083 119.006845,39.125 C120.548845,40 121.798845,41.0833 122.756845,42.375 C123.715845,43.625 124.402845,44.9792 124.819845,46.4375 C125.277845,47.8958 125.506845,49.1875 125.506845,50.3125 C125.506845,51.1458 125.277845,51.8958 124.819845,52.5625 C124.402845,53.2292 123.882845,53.7917 123.256845,54.25 C122.632845,54.7083 121.944845,55.0625 121.194845,55.3125 C120.444845,55.5208 119.777845,55.6042 119.194845,55.5625 C118.611845,55.5208 118.132845,55.3125 117.756845,54.9375 C117.423845,54.5625 117.319845,54 117.444845,53.25 C117.277845,52.7083 117.111845,52.0417 116.944845,51.25 C116.819845,50.4583 116.569845,49.7083 116.194845,49 C115.861845,48.25 115.382845,47.625 114.756845,47.125 C114.132845,46.5833 113.277845,46.3125 112.194845,46.3125 C111.027845,46.3125 109.882845,46.875 108.756845,48 C107.673845,49.0833 106.694845,50.5833 105.819845,52.5 C104.986845,54.4167 104.298845,56.6458 103.756845,59.1875 C103.256845,61.7292 103.006845,64.4375 103.006845,67.3125 C103.006845,69.8542 103.319845,72.1042 103.944845,74.0625 C104.611845,76.0208 105.527845,77.6667 106.694845,79 C107.861845,80.3333 109.236845,81.3542 110.819845,82.0625 C112.444845,82.7292 114.194845,83.0625 116.069845,83.0625 C118.569845,83.0625 120.736845,82.6042 122.569845,81.6875 C124.444845,80.7292 126.027845,79.4792 127.319845,77.9375 C128.611845,76.3958 129.652845,74.6667 130.444845,72.75 C131.236845,70.8333 131.819845,68.8958 132.194845,66.9375 C132.486845,65.5208 133.069845,64.5833 133.944845,64.125 C134.861845,63.625 135.777845,63.5 136.694845,63.75 C137.652845,64 138.465845,64.5417 139.132845,65.375 C139.840845,66.1667 140.132845,67.125 140.006845,68.25 C139.840845,69.5417 139.527845,71.0208 139.069845,72.6875 C138.652845,74.3542 138.027845,76.0417 137.194845,77.75 C136.361845,79.4583 135.298845,81.1458 134.006845,82.8125 C132.756845,84.4375 131.215845,85.8958 129.382845,87.1875 C127.548845,88.4792 125.402845,89.5208 122.944845,90.3125 C120.527845,91.1042 117.756845,91.5 114.632845,91.5 Z M139.444845,26.375 C138.402845,26.375 137.402845,26.1667 136.444845,25.75 C135.527845,25.3333 134.715845,24.7708 134.006845,24.0625 C133.340845,23.3542 132.798845,22.5417 132.382845,21.625 C131.965845,20.6667 131.756845,19.6458 131.756845,18.5625 C131.756845,17.4375 131.965845,16.3958 132.382845,15.4375 C132.798845,14.4792 133.340845,13.6667 134.006845,13 C134.715845,12.2917 135.527845,11.75 136.444845,11.375 C137.402845,10.9583 138.402845,10.75 139.444845,10.75 C140.569845,10.75 141.611845,10.9583 142.569845,11.375 C143.527845,11.75 144.340845,12.2917 145.006845,13 C145.715845,13.6667 146.256845,14.4792 146.632845,15.4375 C147.048845,16.3958 147.256845,17.4375 147.256845,18.5625 C147.256845,19.6458 147.048845,20.6667 146.632845,21.625 C146.256845,22.5417 145.715845,23.3542 145.006845,24.0625 C144.340845,24.7708 143.527845,25.3333 142.569845,25.75 C141.611845,26.1667 140.569845,26.375 139.444845,26.375 Z M142.382845,77.1875 C142.382845,77.4792 142.402845,77.9583 142.444845,78.625 C142.486845,79.25 142.611845,79.8958 142.819845,80.5625 C143.027845,81.2292 143.361845,81.8125 143.819845,82.3125 C144.277845,82.8125 144.923845,83.0625 145.756845,83.0625 C147.006845,83.0625 148.090845,82.6042 149.006845,81.6875 C149.965845,80.7708 150.777845,79.625 151.444845,78.25 C152.152845,76.875 152.736845,75.3958 153.194845,73.8125 C153.652845,72.1875 154.027845,70.6667 154.319845,69.25 C154.569845,67.9583 154.944845,67.0208 155.444845,66.4375 C155.986845,65.8542 156.548845,65.5417 157.132845,65.5 C157.756845,65.4167 158.361845,65.5625 158.944845,65.9375 C159.569845,66.3125 160.111845,66.8125 160.569845,67.4375 C161.069845,68.0208 161.423845,68.6875 161.632845,69.4375 C161.882845,70.1875 161.923845,70.8958 161.756845,71.5625 C161.173845,73.6875 160.402845,75.9167 159.444845,78.25 C158.527845,80.5833 157.340845,82.7292 155.882845,84.6875 C154.423845,86.6458 152.673845,88.2708 150.632845,89.5625 C148.590845,90.8542 146.194845,91.5 143.444845,91.5 C141.736845,91.5 140.215845,91.1667 138.882845,90.5 C137.548845,89.875 136.423845,89.0208 135.506845,87.9375 C134.590845,86.8542 133.882845,85.5833 133.382845,84.125 C132.923845,82.6667 132.694845,81.125 132.694845,79.5 L132.694845,45.3125 C132.694845,44.1042 132.590845,43.2292 132.382845,42.6875 C132.215845,42.1458 132.132845,41.6458 132.132845,41.1875 C132.132845,40.5625 132.465845,40.0625 133.132845,39.6875 C133.798845,39.2708 134.590845,39.0625 135.506845,39.0625 C137.632845,39.0625 139.298845,39.625 140.506845,40.75 C141.756845,41.8333 142.382845,43.1458 142.382845,44.6875 L142.382845,77.1875 Z M191.506845,83.0625 C192.798845,83.0625 193.902845,82.6042 194.819845,81.6875 C195.777845,80.7708 196.590845,79.625 197.256845,78.25 C197.965845,76.875 198.527845,75.3958 198.944845,73.8125 C199.402845,72.1875 199.777845,70.6667 200.069845,69.25 C200.361845,67.9167 200.777845,66.9583 201.319845,66.375 C201.902845,65.75 202.527845,65.4375 203.194845,65.4375 C203.694845,65.4375 204.194845,65.6042 204.694845,65.9375 C205.236845,66.2292 205.715845,66.625 206.132845,67.125 C206.590845,67.625 206.944845,68.1875 207.194845,68.8125 C207.486845,69.4375 207.632845,70.0625 207.632845,70.6875 C207.632845,70.7708 207.632845,70.875 207.632845,71 C207.632845,71.125 207.590845,71.3125 207.506845,71.5625 C206.965845,73.6875 206.215845,75.9167 205.256845,78.25 C204.340845,80.5833 203.152845,82.7292 201.694845,84.6875 C200.236845,86.6458 198.465845,88.2708 196.382845,89.5625 C194.340845,90.8542 191.944845,91.5 189.194845,91.5 C186.944845,91.5 184.986845,91.0208 183.319845,90.0625 C181.652845,89.1042 180.340845,87.8333 179.382845,86.25 C178.090845,87.7083 176.527845,88.9375 174.694845,89.9375 C172.902845,90.9792 170.798845,91.5 168.382845,91.5 C165.882845,91.5 163.673845,91 161.756845,90 C159.882845,89 158.298845,87.6458 157.006845,85.9375 C155.715845,84.1875 154.736845,82.1458 154.069845,79.8125 C153.444845,77.4375 153.132845,74.8958 153.132845,72.1875 C153.132845,66.8542 153.986845,62.0625 155.694845,57.8125 C157.402845,53.5625 159.673845,49.9583 162.506845,47 C165.340845,44 168.569845,41.7083 172.194845,40.125 C175.861845,38.5417 179.652845,37.75 183.569845,37.75 C185.319845,37.75 186.736845,38.2292 187.819845,39.1875 C188.902845,40.1458 189.444845,41.4583 189.444845,43.125 C189.444845,44.2083 189.319845,44.9792 189.069845,45.4375 C188.861845,45.8542 188.444845,46.0625 187.819845,46.0625 C187.236845,46.0625 186.632845,46.0208 186.006845,45.9375 C185.382845,45.8542 184.736845,45.8125 184.069845,45.8125 C181.652845,45.8125 179.194845,46.3542 176.694845,47.4375 C174.194845,48.4792 171.923845,50.1042 169.882845,52.3125 C167.882845,54.4792 166.236845,57.25 164.944845,60.625 C163.652845,63.9583 163.006845,67.9375 163.006845,72.5625 C163.006845,75.9375 163.652845,78.5417 164.944845,80.375 C166.236845,82.1667 168.006845,83.0625 170.256845,83.0625 C172.006845,83.0625 173.465845,82.4167 174.632845,81.125 C175.798845,79.7917 176.736845,78.2292 177.444845,76.4375 L177.444845,56.6875 C177.444845,56.0625 177.402845,55.5417 177.319845,55.125 C177.277845,54.7083 177.215845,54.3542 177.132845,54.0625 C177.090845,53.7708 177.048845,53.5208 177.006845,53.3125 C176.965845,53.0625 176.944845,52.8333 176.944845,52.625 C176.944845,51.9583 177.256845,51.4375 177.882845,51.0625 C178.548845,50.6458 179.340845,50.4375 180.256845,50.4375 C182.382845,50.4375 184.069845,51 185.319845,52.125 C186.569845,53.2083 187.194845,54.5208 187.194845,56.0625 L187.194845,77.1875 C187.194845,77.8958 187.277845,78.6042 187.444845,79.3125 C187.611845,79.9792 187.861845,80.6042 188.194845,81.1875 C188.527845,81.7292 188.965845,82.1875 189.506845,82.5625 C190.090845,82.8958 190.756845,83.0625 191.506845,83.0625 Z M210.882845,50.0625 C211.340845,49.1875 211.777845,48.0208 212.194845,46.5625 C212.652845,45.0625 213.069845,43.4167 213.444845,41.625 C213.861845,39.8333 214.236845,37.9583 214.569845,36 C214.902845,34.0417 215.194845,32.125 215.444845,30.25 C215.694845,28.375 215.882845,26.625 216.006845,25 C216.173845,23.3333 216.256845,21.9167 216.256845,20.75 C216.256845,16.5 215.944845,13.3958 215.319845,11.4375 C214.694845,9.4375 213.861845,8.4375 212.819845,8.4375 C212.486845,8.4375 212.194845,8.60417 211.944845,8.9375 C211.694845,9.27083 211.486845,9.70833 211.319845,10.25 C211.152845,10.75 211.027845,11.3125 210.944845,11.9375 C210.902845,12.5208 210.882845,13.0625 210.882845,13.5625 L210.882845,50.0625 Z M229.069845,69.375 C229.319845,68.125 229.694845,67.2292 230.194845,66.6875 C230.736845,66.1042 231.298845,65.7917 231.882845,65.75 C232.506845,65.6667 233.132845,65.8125 233.756845,66.1875 C234.382845,66.5208 234.923845,66.9792 235.382845,67.5625 C235.840845,68.1458 236.173845,68.8125 236.382845,69.5625 C236.632845,70.2708 236.673845,70.9792 236.506845,71.6875 C235.923845,73.3958 235.090845,75.3958 234.006845,77.6875 C232.923845,79.9792 231.548845,82.1458 229.882845,84.1875 C228.215845,86.2292 226.256845,87.9583 224.006845,89.375 C221.756845,90.7917 219.173845,91.5 216.256845,91.5 C213.798845,91.5 211.632845,91.0833 209.756845,90.25 C207.882845,89.4583 206.298845,88.3333 205.006845,86.875 C203.756845,85.375 202.798845,83.6042 202.132845,81.5625 C201.506845,79.4792 201.194845,77.1667 201.194845,74.625 L201.194845,16.375 C201.194845,14 201.486845,11.8125 202.069845,9.8125 C202.694845,7.77083 203.527845,6.04167 204.569845,4.625 C205.652845,3.16667 206.902845,2.04167 208.319845,1.25 C209.736845,0.416667 211.236845,0 212.819845,0 C214.694845,0 216.277845,0.354167 217.569845,1.0625 C218.861845,1.72917 219.923845,2.625 220.756845,3.75 C221.590845,4.875 222.236845,6.16667 222.694845,7.625 C223.194845,9.08333 223.548845,10.5833 223.756845,12.125 C223.965845,13.625 224.090845,15.125 224.132845,16.625 C224.173845,18.0833 224.194845,19.4167 224.194845,20.625 C224.194845,23.75 223.902845,27.0417 223.319845,30.5 C222.736845,33.9167 221.986845,37.2917 221.069845,40.625 C220.194845,43.9583 219.215845,47.1667 218.132845,50.25 C217.090845,53.2917 216.069845,56 215.069845,58.375 C214.111845,60.75 213.236845,62.6875 212.444845,64.1875 C211.694845,65.6875 211.173845,66.5625 210.882845,66.8125 L210.882845,74.25 C210.882845,76.8333 211.423845,78.9583 212.506845,80.625 C213.590845,82.25 215.319845,83.0625 217.694845,83.0625 C219.152845,83.0625 220.506845,82.625 221.756845,81.75 C223.048845,80.8333 224.173845,79.7083 225.132845,78.375 C226.132845,77 226.965845,75.5208 227.632845,73.9375 C228.298845,72.3125 228.777845,70.7917 229.069845,69.375 Z M239.632845,50.0625 C240.090845,49.1875 240.527845,48.0208 240.944845,46.5625 C241.402845,45.0625 241.819845,43.4167 242.194845,41.625 C242.611845,39.8333 242.986845,37.9583 243.319845,36 C243.652845,34.0417 243.944845,32.125 244.194845,30.25 C244.444845,28.375 244.632845,26.625 244.756845,25 C244.923845,23.3333 245.006845,21.9167 245.006845,20.75 C245.006845,16.5 244.694845,13.3958 244.069845,11.4375 C243.444845,9.4375 242.611845,8.4375 241.569845,8.4375 C241.236845,8.4375 240.944845,8.60417 240.694845,8.9375 C240.444845,9.27083 240.236845,9.70833 240.069845,10.25 C239.902845,10.75 239.777845,11.3125 239.694845,11.9375 C239.652845,12.5208 239.632845,13.0625 239.632845,13.5625 L239.632845,50.0625 Z M257.819845,69.375 C258.069845,68.125 258.444845,67.2292 258.944845,66.6875 C259.486845,66.1042 260.048845,65.7917 260.632845,65.75 C261.256845,65.6667 261.882845,65.8125 262.506845,66.1875 C263.132845,66.5208 263.673845,66.9792 264.132845,67.5625 C264.590845,68.1458 264.923845,68.8125 265.132845,69.5625 C265.382845,70.2708 265.423845,70.9792 265.256845,71.6875 C264.673845,73.3958 263.840845,75.3958 262.756845,77.6875 C261.673845,79.9792 260.298845,82.1458 258.632845,84.1875 C256.965845,86.2292 255.006845,87.9583 252.756845,89.375 C250.506845,90.7917 247.923845,91.5 245.006845,91.5 C242.548845,91.5 240.382845,91.0833 238.506845,90.25 C236.632845,89.4583 235.048845,88.3333 233.756845,86.875 C232.506845,85.375 231.548845,83.6042 230.882845,81.5625 C230.256845,79.4792 229.944845,77.1667 229.944845,74.625 L229.944845,16.375 C229.944845,14 230.236845,11.8125 230.819845,9.8125 C231.444845,7.77083 232.277845,6.04167 233.319845,4.625 C234.402845,3.16667 235.652845,2.04167 237.069845,1.25 C238.486845,0.416667 239.986845,0 241.569845,0 C243.444845,0 245.027845,0.354167 246.319845,1.0625 C247.611845,1.72917 248.673845,2.625 249.506845,3.75 C250.340845,4.875 250.986845,6.16667 251.444845,7.625 C251.944845,9.08333 252.298845,10.5833 252.506845,12.125 C252.715845,13.625 252.840845,15.125 252.882845,16.625 C252.923845,18.0833 252.944845,19.4167 252.944845,20.625 C252.944845,23.75 252.652845,27.0417 252.069845,30.5 C251.486845,33.9167 250.736845,37.2917 249.819845,40.625 C248.944845,43.9583 247.965845,47.1667 246.882845,50.25 C245.840845,53.2917 244.819845,56 243.819845,58.375 C242.861845,60.75 241.986845,62.6875 241.194845,64.1875 C240.444845,65.6875 239.923845,66.5625 239.632845,66.8125 L239.632845,74.25 C239.632845,76.8333 240.173845,78.9583 241.256845,80.625 C242.340845,82.25 244.069845,83.0625 246.444845,83.0625 C247.902845,83.0625 249.256845,82.625 250.506845,81.75 C251.798845,80.8333 252.923845,79.7083 253.882845,78.375 C254.882845,77 255.715845,75.5208 256.382845,73.9375 C257.048845,72.3125 257.527845,70.7917 257.819845,69.375 Z M304.132845,69.25 C304.506845,67.9167 304.944845,66.9583 305.444845,66.375 C305.944845,65.75 306.527845,65.4375 307.194845,65.4375 C307.694845,65.4375 308.215845,65.6042 308.756845,65.9375 C309.298845,66.2292 309.777845,66.625 310.194845,67.125 C310.652845,67.625 311.006845,68.1875 311.256845,68.8125 C311.548845,69.4375 311.694845,70.0625 311.694845,70.6875 C311.694845,70.7708 311.694845,70.9375 311.694845,71.1875 C311.694845,71.4375 311.652845,71.6875 311.569845,71.9375 C310.486845,75.6458 309.215845,78.9375 307.756845,81.8125 C306.340845,84.6458 304.798845,87.1875 303.132845,89.4375 C301.506845,91.6875 299.819845,93.6875 298.069845,95.4375 C296.319845,97.2292 294.569845,98.875 292.819845,100.3755 L292.819845,122.4995 C292.819845,125.8755 292.423845,128.7085 291.632845,130.9995 C290.882845,133.3335 289.882845,135.2085 288.632845,136.6255 C287.382845,138.0835 285.965845,139.1255 284.382845,139.7495 C282.798845,140.3755 281.194845,140.6875 279.569845,140.6875 C277.777845,140.6875 276.132845,140.2915 274.632845,139.4995 C273.132845,138.7495 271.819845,137.7085 270.694845,136.3755 C269.611845,135.0415 268.756845,133.4795 268.132845,131.6875 C267.548845,129.8955 267.256845,127.9795 267.256845,125.9375 C267.256845,122.6875 267.673845,119.8125 268.506845,117.3125 C269.382845,114.8125 270.548845,112.5205 272.006845,110.4375 C273.465845,108.3545 275.152845,106.3955 277.069845,104.5625 C278.986845,102.7705 281.006845,100.9375 283.132845,99.0625 L283.132845,82.8125 C281.590845,85.3958 279.798845,87.5 277.756845,89.125 C275.715845,90.7917 273.319845,91.625 270.569845,91.625 C268.444845,91.625 266.527845,91.1875 264.819845,90.3125 C263.152845,89.4375 261.736845,88.2083 260.569845,86.625 C259.402845,85 258.506845,83.0625 257.882845,80.8125 C257.298845,78.5208 257.006845,75.9792 257.006845,73.1875 C257.006845,69.8125 257.236845,66.4167 257.694845,63 C258.194845,59.5833 258.736845,56.5 259.319845,53.75 C259.986845,50.5417 260.756845,47.4375 261.632845,44.4375 C261.840845,43.8958 261.986845,43.3542 262.069845,42.8125 C262.194845,42.2292 262.444845,41.7083 262.819845,41.25 C263.194845,40.7917 263.777845,40.4167 264.569845,40.125 C265.402845,39.8333 266.673845,39.6875 268.382845,39.6875 C269.965845,39.6875 270.986845,39.9792 271.444845,40.5625 C271.902845,41.1042 272.069845,41.75 271.944845,42.5 C271.861845,43.25 271.611845,44.0208 271.194845,44.8125 C270.819845,45.6042 270.569845,46.25 270.444845,46.75 C269.861845,49.125 269.340845,51.2917 268.882845,53.25 C268.423845,55.2083 268.027845,57.1875 267.694845,59.1875 C267.402845,61.1458 267.173845,63.2083 267.006845,65.375 C266.840845,67.5 266.756845,69.8958 266.756845,72.5625 C266.756845,76.0625 267.256845,78.7083 268.256845,80.5 C269.298845,82.2917 270.756845,83.1875 272.632845,83.1875 C273.923845,83.1875 275.111845,82.7083 276.194845,81.75 C277.319845,80.7917 278.319845,79.5208 279.194845,77.9375 C280.111845,76.3125 280.902845,74.4792 281.569845,72.4375 C282.236845,70.3542 282.756845,68.1875 283.132845,65.9375 L283.132845,45.3125 C283.132845,44.1042 283.048845,43.2292 282.882845,42.6875 C282.715845,42.1458 282.632845,41.6458 282.632845,41.1875 C282.632845,40.5625 282.944845,40.0625 283.569845,39.6875 C284.236845,39.2708 285.027845,39.0625 285.944845,39.0625 C288.069845,39.0625 289.736845,39.625 290.944845,40.75 C292.194845,41.8333 292.819845,43.1458 292.819845,44.6875 L292.819845,89.625 C295.152845,87.0417 297.298845,84.1042 299.256845,80.8125 C301.215845,77.5208 302.840845,73.6667 304.132845,69.25 Z M279.569845,132.6255 C280.569845,132.6255 281.319845,132.2085 281.819845,131.3755 C282.319845,130.5415 282.652845,129.5625 282.819845,128.4375 C283.027845,127.3545 283.132845,126.2495 283.132845,125.1255 C283.132845,123.9995 283.132845,123.1255 283.132845,122.4995 L283.132845,108.8125 C281.048845,110.8955 279.361845,113.2495 278.069845,115.8755 C276.819845,118.4995 276.194845,121.7295 276.194845,125.5625 C276.194845,127.5625 276.486845,129.2295 277.069845,130.5625 C277.694845,131.9375 278.527845,132.6255 279.569845,132.6255 Z" id="Shape" fill="url(#linearGradient-1)"></path>
            <path d="M313.844845,60.3375 C311.344845,60.3375 309.194845,59.4375 307.394845,57.6375 C305.594845,55.8375 304.694845,53.6875 304.694845,51.1875 C304.694845,48.4875 305.594845,46.2375 307.394845,44.4375 C309.294845,42.6375 311.444845,41.7375 313.844845,41.7375 C316.444845,41.7375 318.644845,42.6875 320.444845,44.5875 C322.244845,46.3875 323.144845,48.5875 323.144845,51.1875 C323.144845,53.5875 322.244845,55.7375 320.444845,57.6375 C318.744845,59.4375 316.544845,60.3375 313.844845,60.3375 Z" id="Path" fill="#FFCC99"></path>
            <path d="M334.410845,62.7775 C333.682845,62.7775 333.010845,62.5535 332.394845,62.1055 C331.834845,61.6575 331.554845,61.0135 331.554845,60.1735 L331.554845,40.4335 C331.554845,39.4815 331.834845,38.7815 332.394845,38.3335 C333.010845,37.8295 333.682845,37.5775 334.410845,37.5775 C334.970845,37.5775 335.502845,37.7175 336.006845,37.9975 C336.510845,38.2215 336.874845,38.6415 337.098845,39.2575 C337.210845,39.5935 337.266845,39.9015 337.266845,40.1815 C338.106845,39.2855 339.198845,38.5575 340.542845,37.9975 C341.886845,37.4375 343.202845,37.1575 344.490845,37.1575 C348.130845,37.1575 350.818845,38.6135 352.554845,41.5255 C353.226845,40.3495 354.318845,39.3415 355.830845,38.5015 C357.398845,37.6055 359.302845,37.1575 361.542845,37.1575 C364.566845,37.1575 366.974845,38.1655 368.766845,40.1815 C370.558845,42.1975 371.454845,45.1655 371.454845,49.0855 L371.454845,60.1735 C371.454845,61.0135 371.146845,61.6575 370.530845,62.1055 C369.914845,62.5535 369.270845,62.7775 368.598845,62.7775 C367.870845,62.7775 367.198845,62.5535 366.582845,62.1055 C366.022845,61.6575 365.742845,61.0135 365.742845,60.1735 L365.742845,49.5895 C365.742845,44.7735 363.950845,42.3655 360.366845,42.3655 C358.350845,42.3655 356.894845,42.8975 355.998845,43.9615 C355.102845,45.0255 354.542845,46.2855 354.318845,47.7415 L354.318845,60.1735 C354.318845,61.0135 354.010845,61.6575 353.394845,62.1055 C352.778845,62.5535 352.134845,62.7775 351.462845,62.7775 C350.734845,62.7775 350.062845,62.5535 349.446845,62.1055 C348.886845,61.6575 348.606845,61.0135 348.606845,60.1735 L348.606845,49.5895 C348.606845,47.1255 348.130845,45.3055 347.178845,44.1295 C346.226845,42.9535 344.938845,42.3655 343.314845,42.3655 C340.906845,42.3655 339.282845,43.1215 338.442845,44.6335 C337.658845,46.0895 337.266845,47.7135 337.266845,49.5055 L337.266845,60.1735 C337.266845,61.0135 336.958845,61.6575 336.342845,62.1055 C335.782845,62.5535 335.138845,62.7775 334.410845,62.7775 Z M389.074845,62.7775 C386.666845,62.7775 384.510845,62.2175 382.606845,61.0975 C380.702845,59.9775 379.218845,58.4375 378.154845,56.4775 C377.090845,54.4615 376.558845,52.2215 376.558845,49.7575 C376.558845,47.3495 377.090845,45.1935 378.154845,43.2895 C379.218845,41.3855 380.702845,39.9015 382.606845,38.8375 C384.510845,37.7175 386.666845,37.1575 389.074845,37.1575 C390.642845,37.1575 392.042845,37.4375 393.274845,37.9975 C394.506845,38.5015 395.570845,39.1735 396.466845,40.0135 C396.578845,39.2295 396.914845,38.6415 397.474845,38.2495 C398.034845,37.8015 398.650845,37.5775 399.322845,37.5775 C400.050845,37.5775 400.694845,37.8295 401.254845,38.3335 C401.870845,38.7815 402.178845,39.4815 402.178845,40.4335 L402.178845,60.1735 C402.178845,61.0135 401.870845,61.6575 401.254845,62.1055 C400.694845,62.5535 400.050845,62.7775 399.322845,62.7775 C398.594845,62.7775 397.922845,62.5535 397.306845,62.1055 C396.746845,61.6575 396.466845,61.0135 396.466845,60.1735 L396.466845,59.8375 C395.570845,60.7335 394.506845,61.4335 393.274845,61.9375 C392.042845,62.4975 390.642845,62.7775 389.074845,62.7775 Z M389.578845,57.5695 C391.706845,57.5695 393.386845,56.8695 394.618845,55.4695 C395.850845,54.0135 396.466845,52.1095 396.466845,49.7575 C396.466845,47.5175 395.850845,45.7255 394.618845,44.3815 C393.386845,43.0375 391.706845,42.3655 389.578845,42.3655 C387.394845,42.3655 385.630845,43.0375 384.286845,44.3815 C382.942845,45.7255 382.270845,47.5175 382.270845,49.7575 C382.270845,52.1095 382.942845,54.0135 384.286845,55.4695 C385.630845,56.8695 387.394845,57.5695 389.578845,57.5695 Z M419.843845,62.7775 C417.435845,62.7775 415.279845,62.2175 413.375845,61.0975 C411.471845,59.9775 409.987845,58.4375 408.923845,56.4775 C407.859845,54.4615 407.327845,52.2215 407.327845,49.7575 C407.327845,47.3495 407.859845,45.1935 408.923845,43.2895 C409.987845,41.3855 411.471845,39.9015 413.375845,38.8375 C415.279845,37.7175 417.435845,37.1575 419.843845,37.1575 C421.411845,37.1575 422.811845,37.4095 424.043845,37.9135 C425.275845,38.4175 426.339845,39.1175 427.235845,40.0135 L427.235845,28.2535 C427.235845,27.3015 427.515845,26.6015 428.075845,26.1535 C428.691845,25.6495 429.363845,25.3975 430.091845,25.3975 C430.819845,25.3975 431.463845,25.6495 432.023845,26.1535 C432.639845,26.6015 432.947845,27.3015 432.947845,28.2535 L432.947845,60.1735 C432.947845,61.0135 432.639845,61.6575 432.023845,62.1055 C431.463845,62.5535 430.819845,62.7775 430.091845,62.7775 C429.363845,62.7775 428.691845,62.5535 428.075845,62.1055 C427.515845,61.6575 427.235845,61.0135 427.235845,60.1735 L427.235845,59.8375 C426.339845,60.7335 425.275845,61.4335 424.043845,61.9375 C422.811845,62.4975 421.411845,62.7775 419.843845,62.7775 Z M420.347845,57.5695 C422.475845,57.5695 424.155845,56.8695 425.387845,55.4695 C426.619845,54.0135 427.235845,52.1095 427.235845,49.7575 C427.235845,47.5175 426.619845,45.7255 425.387845,44.3815 C424.155845,43.0375 422.475845,42.3655 420.347845,42.3655 C418.163845,42.3655 416.399845,43.0375 415.055845,44.3815 C413.711845,45.7255 413.039845,47.5175 413.039845,49.7575 C413.039845,52.1095 413.711845,54.0135 415.055845,55.4695 C416.399845,56.8695 418.163845,57.5695 420.347845,57.5695 Z M445.489845,49.5055 L445.489845,60.1735 C445.489845,61.0135 445.181845,61.6575 444.565845,62.1055 C444.005845,62.5535 443.361845,62.7775 442.633845,62.7775 C441.905845,62.7775 441.233845,62.5535 440.617845,62.1055 C440.057845,61.6575 439.777845,61.0135 439.777845,60.1735 L439.777845,40.4335 C439.777845,39.4815 440.057845,38.7815 440.617845,38.3335 C441.233845,37.8295 441.905845,37.5775 442.633845,37.5775 C443.361845,37.5775 444.005845,37.8295 444.565845,38.3335 C445.181845,38.7815 445.489845,39.4815 445.489845,40.4335 L445.489845,40.7695 C446.273845,39.7055 447.281845,38.8375 448.513845,38.1655 C449.801845,37.4935 451.145845,37.1575 452.545845,37.1575 C453.217845,37.1575 453.889845,37.2415 454.561845,37.4095 C455.233845,37.5775 455.737845,37.9135 456.073845,38.4175 C456.409845,38.9215 456.577845,39.4815 456.577845,40.0975 C456.577845,40.8255 456.325845,41.4975 455.821845,42.1135 C455.373845,42.6735 454.701845,42.9535 453.805845,42.9535 C453.413845,42.9535 452.993845,42.8975 452.545845,42.7855 C452.153845,42.6735 451.649845,42.6175 451.033845,42.6175 C449.409845,42.6175 448.065845,43.2335 447.001845,44.4655 C445.993845,45.6975 445.489845,47.3775 445.489845,49.5055 Z M463.807845,62.7775 C463.079845,62.7775 462.407845,62.5535 461.791845,62.1055 C461.231845,61.6575 460.951845,61.0135 460.951845,60.1735 L460.951845,40.0135 C460.951845,39.0615 461.231845,38.3615 461.791845,37.9135 C462.407845,37.4095 463.079845,37.1575 463.807845,37.1575 C464.535845,37.1575 465.179845,37.4095 465.739845,37.9135 C466.355845,38.3615 466.663845,39.0615 466.663845,40.0135 L466.663845,60.1735 C466.663845,61.0135 466.355845,61.6575 465.739845,62.1055 C465.179845,62.5535 464.535845,62.7775 463.807845,62.7775 Z M463.891845,32.5375 C462.827845,32.5375 461.903845,32.2015 461.119845,31.5295 C460.391845,30.8015 460.027845,29.9335 460.027845,28.9255 C460.027845,27.9735 460.391845,27.1615 461.119845,26.4895 C461.903845,25.7615 462.827845,25.3975 463.891845,25.3975 C464.899845,25.3975 465.767845,25.7615 466.495845,26.4895 C467.223845,27.1615 467.587845,27.9735 467.587845,28.9255 C467.587845,29.9335 467.223845,30.8015 466.495845,31.5295 C465.767845,32.2015 464.899845,32.5375 463.891845,32.5375 Z M484.835845,62.7775 C482.427845,62.7775 480.271845,62.2175 478.367845,61.0975 C476.463845,59.9775 474.979845,58.4375 473.915845,56.4775 C472.851845,54.4615 472.319845,52.2215 472.319845,49.7575 C472.319845,47.3495 472.851845,45.1935 473.915845,43.2895 C474.979845,41.3855 476.463845,39.9015 478.367845,38.8375 C480.271845,37.7175 482.427845,37.1575 484.835845,37.1575 C486.403845,37.1575 487.803845,37.4095 489.035845,37.9135 C490.267845,38.4175 491.331845,39.1175 492.227845,40.0135 L492.227845,28.2535 C492.227845,27.3015 492.507845,26.6015 493.067845,26.1535 C493.683845,25.6495 494.355845,25.3975 495.083845,25.3975 C495.811845,25.3975 496.455845,25.6495 497.015845,26.1535 C497.631845,26.6015 497.939845,27.3015 497.939845,28.2535 L497.939845,60.1735 C497.939845,61.0135 497.631845,61.6575 497.015845,62.1055 C496.455845,62.5535 495.811845,62.7775 495.083845,62.7775 C494.355845,62.7775 493.683845,62.5535 493.067845,62.1055 C492.507845,61.6575 492.227845,61.0135 492.227845,60.1735 L492.227845,59.8375 C491.331845,60.7335 490.267845,61.4335 489.035845,61.9375 C487.803845,62.4975 486.403845,62.7775 484.835845,62.7775 Z M485.339845,57.5695 C487.467845,57.5695 489.147845,56.8695 490.379845,55.4695 C491.611845,54.0135 492.227845,52.1095 492.227845,49.7575 C492.227845,47.5175 491.611845,45.7255 490.379845,44.3815 C489.147845,43.0375 487.467845,42.3655 485.339845,42.3655 C483.155845,42.3655 481.391845,43.0375 480.047845,44.3815 C478.703845,45.7255 478.031845,47.5175 478.031845,49.7575 C478.031845,52.1095 478.703845,54.0135 480.047845,55.4695 C481.391845,56.8695 483.155845,57.5695 485.339845,57.5695 Z" id="Shape" fill="#D095F5"></path>
        </g>
    </g>
</svg>